<?xml version="1.0" encoding="utf-8"?>
<!-- Generator: Adobe Illustrator 25.2.0, SVG Export Plug-In . SVG Version: 6.00 Build 0)  -->
<svg version="1.1" id="_x34_04" xmlns="http://www.w3.org/2000/svg" xmlns:xlink="http://www.w3.org/1999/xlink" x="0px" y="0px"
	 viewBox="0 0 850 1150" style="enable-background:new 0 0 850 1150;" xml:space="preserve">
<style type="text/css">
	.st0{fill:#D9EFFE;}
	.st1{clip-path:url(#XMLID_3_);fill:#BDF437;}
	.st2{fill:#1D5586;}
	.st3{fill:#BDF437;}
	.st4{fill:#FFFFFF;}
	.st5{fill:#F1F2F2;}
	.st6{fill:#285982;}
	.st7{fill:none;stroke:#1D5586;stroke-width:9;stroke-miterlimit:10;}
</style>
<g>
	<ellipse class="st0" cx="424.46" cy="985.56" rx="235.25" ry="24.38"/>
	<g>
		<g>
			<defs>
				<path id="XMLID_1_" d="M723.71,446.47c0,153.08-125.4,236.52-277.18,256.45c-118.45,15.56-277.18-103.37-277.18-256.45
					s125.49-297.75,277.18-277.18C647.2,196.5,723.71,293.39,723.71,446.47z"/>
			</defs>
			<use xlink:href="#XMLID_1_"  style="overflow:visible;fill:#44C6FF;"/>
			<clipPath id="XMLID_3_">
				<use xlink:href="#XMLID_1_"  style="overflow:visible;"/>
			</clipPath>
			<path class="st1" d="M403.51,163.23c-6.01,7.09-0.99,18.88,7.29,23.1c8.28,4.22,18.14,3.16,27.37,2.13
				c2.63-0.29,5.46-0.54,7.75,0.78c3.16,1.82,4.14,5.93,4.16,9.57c0.11,22.5-23.65,40.42-21.83,62.84
				c1.66,20.41,23.64,33.69,28.57,53.57c3.19,12.84-0.86,27.93,7.08,38.51c7.25,9.66,21.13,10.93,31.29,17.47
				c16.93,10.9,21.18,34.65,37.03,47.06c-4.01,16.73-5.83,37.46-5.02,54.64c0.81,17.18,7.15,34.88,20.58,45.63
				c6.48,5.19,14.69,8.97,18.44,16.38c2.7,5.34,2.53,11.62,2.48,17.6c-0.36,42.61,8.22,85.27,25.02,124.43
				c3.93,9.16,10.78,19.63,20.7,18.65c7.91-0.79,13.19-9.12,13.85-17.04c0.66-7.92-1.98-15.69-3.58-23.48
				c-5.58-27.25,2.41-56.94,20.91-77.71c15.2-17.07,36.34-27.75,52.64-43.78c16.29-16.03,27.3-41.96,15.6-61.6
				c-8.82-14.81-26.93-20.5-42.17-28.56c-19.33-10.23-35.48-25.6-54.32-36.69s-42.68-17.6-62.46-8.28
				c-3.21,1.51-6.94,3.43-10.07,1.76c-1.37-0.73-2.32-2.04-3.2-3.33c-13.3-19.6-19.17-44.11-16.22-67.61
				c10.65-1.76,23.4-1.41,34.13-0.2c10.73,1.21,23.47-1.27,28.39-10.87c6.91,2.6,8.56,11.3,11.05,18.25
				c2.48,6.95,10.53,14.04,16.33,9.48c6.6-4.8,4.61-15.18,0.69-22.34c-3.92-7.16-9.29-14.79-7.27-22.7c0.96-3.76,3.5-6.88,5.87-9.95
				c12.85-16.57,22.95-35.25,29.78-55.07c1.45-4.2,2.77-8.7,1.8-13.04c-1.1-4.94-4.94-8.74-8.7-12.12
				C575.98,155.51,482.97,140.48,403.51,163.23z"/>
			<path class="st1" d="M265.87,298.08c9.02,23.38,32.54,37.09,51.92,52.96c36.57,29.96,61.99,73.24,70.34,119.78
				c3.67,20.45,1.82,45.87-16.39,55.87c-8.68,4.77-19.1,4.71-29,4.54c-12.67-0.22-25.33-0.45-38-0.67
				c-3.54-0.06-7.27-0.08-10.34,1.69c-4.21,2.43-6.02,7.56-6.65,12.38c-1.53,11.67,1.89,23.34,4.41,34.85
				c2.52,11.5,4.05,24-0.93,34.67c-4.98,10.67-18.76,17.94-29,12.12c2.7,13.52,1.82,27.73-2.52,40.82
				c-29.3-19.01-57.65-39.5-84.89-61.36c-12.77-10.25-25.49-21.01-34.53-34.66c-19-28.71-19.04-66.19-11.72-99.84
				c7.33-33.64,21.22-65.61,28.16-99.33c6.65-32.29,7.19-66.88,23.55-95.5c10.57-18.5,27.73-33.3,47.47-41.28
				c7.2-2.91,16.91-6.07,24.44-2.5c8.97,4.25,8.1,16.17,8.39,24.5C261.09,270.83,260.85,285.05,265.87,298.08z"/>
			<path class="st1" d="M353.56,554.29c-3.21,5.04-3.2,11.58-1.57,17.33c1.62,5.75,4.68,10.97,7.32,16.34
				c4.49,9.14,7.83,18.84,9.89,28.81c0.35,1.68,0.74,3.5,2.07,4.58c2.76,2.26,6.81-0.43,8.93-3.29c6.13-8.28,8.25-18.77,10.21-28.89
				c1.8-9.27,3.59-18.53,5.39-27.8c1.15-5.92,1.93-13.02-2.55-17.06c-4.65-4.19-11.44-2.32-16.76-0.77
				c-5.42,1.58-11.01,1.91-16.09,4.63C357.66,549.64,355.23,551.66,353.56,554.29z"/>
			<path class="st1" d="M621.25,357.87c-2.71,0.46-4.13,3.48-4.65,6.18c-0.61,3.21-0.43,6.93,1.94,9.18
				c2.66,2.52,7.37,1.96,9.86-0.74c2.48-2.7,2.84-6.92,1.47-10.32C628.45,358.67,624.96,357.23,621.25,357.87"/>
		</g>
		<path class="st2" d="M409.28,708.79c-23.89,0-49.34-4.75-74.76-14.05c-32.62-11.93-64.44-31.03-92.03-55.23
			c-27.95-24.51-51.15-54.05-67.11-85.4c-17.58-34.55-26.5-70.76-26.5-107.63c0-42.01,9.48-85,27.41-124.32
			c17.61-38.6,43.06-73.11,73.6-99.79c52.46-45.83,116.85-66.26,181.27-57.53c99.42,13.48,170.24,43.82,216.51,92.75
			c43.45,45.95,64.57,107.74,64.57,188.89c0,37.66-7.54,72.58-22.4,103.78c-13.97,29.33-34.45,55.5-60.87,77.81
			c-48.94,41.32-117.35,68.75-197.83,79.32C424.05,708.32,416.74,708.79,409.28,708.79z M402.02,171.86
			c-52.28,0-103.34,19.83-146.2,57.28c-29.59,25.85-54.25,59.3-71.33,96.75c-17.4,38.16-26.6,79.85-26.6,120.58
			c0,35.44,8.59,70.28,25.52,103.55c15.45,30.35,37.93,58.95,65.03,82.72c48.37,42.43,108.28,67.03,161.01,67.04
			c6.99,0,13.84-0.43,20.53-1.31c78.76-10.35,145.57-37.07,193.19-77.27c25.44-21.47,45.13-46.64,58.55-74.8
			c14.29-29.99,21.53-63.61,21.53-99.91c0-78.74-20.32-138.5-62.11-182.7c-44.8-47.38-113.88-76.83-211.18-90.02
			C420.63,172.49,411.3,171.86,402.02,171.86z"/>
		<path class="st3" d="M335.35,228.04c-2.74,2.21-5.46,4.71-6.69,8c-1.24,3.3-0.51,7.58,2.5,9.41c1.74,1.06,3.89,1.14,5.93,1.19
			c13.12,0.31,26.25,0.62,39.37,0.93c4.68,0.11,9.68,0.13,13.6-2.41c3.93-2.54,5.83-8.7,2.48-11.96c-1.3-1.27-3.14-1.89-4.39-3.21
			c-3.37-3.56-0.68-9.42-1.64-14.22c-0.69-3.47-3.58-6.21-6.94-7.14c-3.15-0.87-6.59,0.73-9.62,1.58
			c-7.98,2.25-15.67,5.52-22.83,9.72C343,222.33,339.06,225.04,335.35,228.04z"/>
	</g>
	<g>
		<path class="st4" d="M625.09,448.68L625.09,448.68l82.66-108.86l-4.85-12.87l-79.33,108.86
			c-199.03-46.82-376.37,20.14-376.37,20.14l-91.48-74.59l-3.15,17.93l95.31,70.21l-0.01-0.24
			c7.72,122.71,57.24,167.38,57.24,167.38l-29.54,28.34l4.26,2.59l31.16-30.65c160.22,6.96,297.54-39.16,297.54-39.16l32.19,27.99
			l5.28-4.52l-34.54-29.66C631.91,544.91,627.9,476.79,625.09,448.68z"/>
		<path class="st5" d="M280.47,481.89c0,0,116.45-24.65,166.05-26.7c49.61-2.05,164.63,8.22,164.63,8.22s-157.64,2.81-181,5
			C406.79,470.59,280.47,481.89,280.47,481.89z"/>
		<path class="st5" d="M328.08,589.16c0,0,121.2-9.09,135.34-9.09c14.14,0,135.36-19.19,135.36-19.19s-113.26,27.55-135.35,28.28
			C441.34,589.9,347.24,596.69,328.08,589.16z"/>
		<path class="st5" d="M294.41,532.25c0,0,144.84-22.21,160.81-22.03c15.97,0.18,155.94,0,155.94,0s-147.36,9.25-158.37,11.02
			C441.77,523,314.26,536.46,294.41,532.25z"/>
	</g>
	<g>
		<g>
			<ellipse class="st6" cx="540.9" cy="365.27" rx="22.5" ry="34.63"/>
			<path class="st4" d="M538.77,352.96c0,6.03-2.52,10.91-5.64,10.91c-3.11,0-5.64-4.89-5.64-10.91s2.52-10.91,5.64-10.91
				C536.24,342.05,538.77,346.94,538.77,352.96z"/>
			<path class="st4" d="M540.9,369.33c0,3.01-1.26,5.46-2.82,5.46c-1.56,0-2.82-2.44-2.82-5.46c0-3.01,1.26-5.46,2.82-5.46
				C539.64,363.88,540.9,366.32,540.9,369.33z"/>
		</g>
		<g>
			<ellipse class="st6" cx="320.22" cy="365.27" rx="22.5" ry="34.63"/>
			<path class="st4" d="M317.88,352.96c0,6.03-2.52,10.91-5.64,10.91c-3.11,0-5.64-4.89-5.64-10.91s2.52-10.91,5.64-10.91
				C315.36,342.05,317.88,346.94,317.88,352.96z"/>
			<path class="st4" d="M317.26,370.12c0,2.68-1.12,4.85-2.51,4.85c-1.38,0-2.51-2.17-2.51-4.85c0-2.68,1.12-4.85,2.51-4.85
				C316.14,365.27,317.26,367.44,317.26,370.12z"/>
		</g>
		<path class="st6" d="M263.41,318.15c13.35-3.92,51.99-15.71,77-28.04c2.81-1.39,5.89,1.31,4.89,4.28
			c-2.55,7.64-8.22,18.71-20.22,22.99c-19.47,6.94-49.93,13.44-62.38,6.01C260.56,322.1,261.01,318.85,263.41,318.15z"/>
		<path class="st6" d="M567.49,309.14c-13.35-3.92-51.99-15.71-77-28.04c-2.81-1.39-5.89,1.31-4.89,4.28
			c2.55,7.64,8.22,18.71,20.22,22.99c19.47,6.94,49.93,13.44,62.38,6.01C570.35,313.09,569.89,309.84,567.49,309.14z"/>
	</g>
	<path class="st7" d="M719.79,763.84"/>
	<g>
		<path class="st2" d="M331.38,685.43l-8.92-1.17c-12.23,93.17-13.01,187.58-2.35,280.91c-3.57-0.52-8.47-0.44-15.29,0.06
			c-12.78,0.94-33.83,6.4-47.47,14.29c-2.87,1.66-1.67,6.05,1.65,6.05h66.38c2.76,0,4.99-1.96,5.53-4.48l0.2-0.03
			c-0.03-0.24-0.06-0.47-0.09-0.71c0.04-0.47,0.02-0.95-0.07-1.43c-0.11-0.64-0.23-1.24-0.34-1.83
			C318.42,880.28,318.68,782.18,331.38,685.43z"/>
		<path class="st2" d="M621.43,979.51c-13.64-7.89-34.69-13.35-47.47-14.29c-6.41-0.47-11.11-0.57-14.62-0.15
			c6.75-97.73,1.04-196.02-17.04-292.33l-8.85,1.66c18.34,97.73,23.86,197.51,16.43,296.65c-0.91,2.03-1.48,4.62-2.06,7.87
			c-0.62,3.46,2.06,6.64,5.58,6.64h66.38C623.09,985.56,624.29,981.17,621.43,979.51z"/>
	</g>
	<g>
		<path class="st2" d="M159.09,739.02c-1.05-1.44-2.51-2.13-4.16-2.27c-9.51-83.07-7.37-166.96,6.39-249.45
			c0.41-2.45-1.25-4.77-3.7-5.18c-2.46-0.4-4.77,1.25-5.18,3.7c-14,83.97-16.08,169.37-6.22,253.91c-2.73,1.85-5.15,4.33-6.5,6.74
			c-3.65,6.49-3.42,14.4-2.66,21.8c0.68,6.6,1.72,13.26,4.41,19.32c2.68,6.07,7.18,11.55,13.24,14.25c1.94,0.86,4.26,1.41,6.12,0.4
			c2.21-1.2,2.86-4.03,3.15-6.53c1.09-9.42,0.63-19.72-1.95-28.85c2.58,3.59,5.97,6.6,9.85,8.74c1.63,0.9,4.1,1.43,5.01-0.2
			c0.41-0.75,0.28-1.67,0.11-2.5C174.46,760.28,166.67,749.43,159.09,739.02z"/>
		<path class="st2" d="M736.95,746.47c-1.82-3.23-5.53-6.57-9.35-8.38c1.77-55.88,0.75-112.25-3.05-167.9
			c-1.86-27.27-4.63-53.64-17.88-76.54c-1.24-2.15-4-2.89-6.15-1.64c-2.15,1.24-2.89,4-1.64,6.15
			c12.28,21.24,14.91,46.48,16.7,72.65c3.79,55.41,4.8,111.52,3.03,167.15c-0.37,0.3-0.72,0.65-1.02,1.07
			c-7.58,10.41-15.36,21.26-17.91,33.89c-0.17,0.84-0.3,1.76,0.11,2.5c0.9,1.63,3.38,1.1,5.01,0.2c3.87-2.14,7.26-5.15,9.85-8.74
			c-2.57,9.13-3.04,19.43-1.95,28.85c0.29,2.5,0.94,5.33,3.15,6.53c1.86,1.01,4.19,0.46,6.12-0.4c6.06-2.7,10.56-8.19,13.24-14.25
			c2.68-6.07,3.73-12.72,4.41-19.32C740.37,760.86,740.6,752.95,736.95,746.47z"/>
	</g>
</g>
</svg>
